<?xml version="1.0" encoding="UTF-8"?>
<svg version="1.1" xmlns="http://www.w3.org/2000/svg" width="1024" height="1024">
<path d="M0 0 C337.92 0 675.84 0 1024 0 C1024 337.92 1024 675.84 1024 1024 C686.08 1024 348.16 1024 0 1024 C0 686.08 0 348.16 0 0 Z " fill="#FDFDFD" transform="translate(0,0)"/>
<path d="M0 0 C0 61.05 0 122.1 0 185 C-11.55 185 -23.1 185 -35 185 C-35.33 147.05 -35.66 109.1 -36 70 C-38.31 78.58 -40.62 87.16 -43 96 C-44.7325 102.34798828 -44.7325 102.34798828 -46.5 108.82421875 C-57.03301499 146.61267076 -57.03301499 146.61267076 -65 185 C-73.58 185 -82.16 185 -91 185 C-93.29089635 176.03928014 -95.44591272 167.11041249 -97.28149414 158.04418945 C-100.28967219 143.18948839 -103.78589907 128.49012991 -107.5625 113.8125 C-107.90065231 112.49625137 -107.90065231 112.49625137 -108.24563599 111.15341187 C-110.8097467 101.19766133 -113.45948816 91.26675543 -116.17163086 81.3503418 C-116.44541313 80.34794212 -116.7191954 79.34554245 -117.00127411 78.31276703 C-117.66713228 75.87507286 -118.33337951 73.43748578 -119 71 C-119.00423194 71.59175742 -119.00846388 72.18351484 -119.01282406 72.79320431 C-119.11599617 87.17238236 -119.22461349 101.55151159 -119.33933926 115.93060207 C-119.3946869 122.88413731 -119.44817137 129.83767768 -119.49731445 136.79125977 C-119.54470133 143.49561109 -119.597221 150.19990387 -119.65294075 156.90419197 C-119.67339923 159.46836091 -119.69210638 162.0325444 -119.70907402 164.59673882 C-119.73304096 168.17449105 -119.76310571 171.75214195 -119.79467773 175.32983398 C-119.8004332 176.40157364 -119.80618866 177.47331329 -119.81211853 178.57752991 C-119.82680176 180.03103348 -119.82680176 180.03103348 -119.84178162 181.51390076 C-119.84823417 182.36102851 -119.85468672 183.20815626 -119.8613348 184.08095455 C-120 186 -120 186 -121 187 C-132.22 187 -143.44 187 -155 187 C-155 125.62 -155 64.24 -155 1 C-138.17 1 -121.34 1 -104 1 C-102.4325 7.455625 -100.865 13.91125 -99.25 20.5625 C-95.09485795 37.60782448 -90.84509437 54.62710847 -86.5 71.625 C-86.24528931 72.62242218 -85.99057861 73.61984436 -85.72814941 74.64749146 C-81.9743526 89.3529506 -81.9743526 89.3529506 -78 104 C-75.80137122 98.38101574 -74.02728331 92.79195605 -72.50390625 86.95703125 C-72.27411072 86.09075607 -72.04431519 85.2244809 -71.80755615 84.33195496 C-71.05539004 81.4931299 -70.30891842 78.65284119 -69.5625 75.8125 C-69.03776519 73.82736509 -68.51261201 71.84234073 -67.98706055 69.85742188 C-67.16737811 66.76096758 -66.34812112 63.66440517 -65.5304718 60.56741333 C-63.5607714 53.10746164 -61.57419303 45.65215568 -59.578125 38.19921875 C-59.30246201 37.16924271 -59.02679901 36.13926666 -58.74278259 35.07807922 C-57.66900104 31.06607401 -56.59520835 27.05407326 -55.51931763 23.04263306 C-54.77834506 20.27881036 -54.03934573 17.51446701 -53.30078125 14.75 C-52.97191925 13.52642036 -52.97191925 13.52642036 -52.63641357 12.27812195 C-51.63808189 8.53492597 -50.69563314 4.81430095 -50 1 C-45.45094217 0.85435578 -40.90179317 0.71213289 -36.35253906 0.57275391 C-34.8127979 0.52513634 -33.27308277 0.47666724 -31.73339844 0.42724609 C-29.48899978 0.35536666 -27.24451749 0.28680685 -25 0.21875 C-24.33887207 0.19687622 -23.67774414 0.17500244 -22.99658203 0.15246582 C-15.32466348 -0.07358016 -7.68741391 0 0 0 Z " fill="#DD1C15" transform="translate(535,414)"/>
<path d="M0 0 C-4.88675991 14.10233087 -9.9319436 28.14271941 -15.04907227 42.16296387 C-17.24031197 48.16738409 -19.42708324 54.17343005 -21.61328125 60.1796875 C-22.2818364 62.01642029 -22.2818364 62.01642029 -22.96389771 63.89025879 C-28.43405651 78.92859286 -33.85021694 93.98632917 -39.26293945 109.04541016 C-39.62023636 110.03942841 -39.97753326 111.03344666 -40.34565735 112.05758667 C-41.00175746 113.88327599 -41.65761612 115.70905212 -42.31315613 117.53494263 C-42.60942398 118.35969086 -42.90569183 119.18443909 -43.2109375 120.03417969 C-43.49886169 120.85875168 -43.78678589 121.68332367 -44.08343506 122.53288269 C-45 125 -45 125 -46.09283447 127.35639954 C-50.17578031 136.68472871 -49.6049834 146.33309942 -49.609375 156.32421875 C-49.62437733 158.28149266 -49.64110874 160.238754 -49.65948486 162.19599915 C-49.70294019 167.3135948 -49.72310885 172.43101974 -49.73822021 177.54876709 C-49.75787037 182.78456628 -49.79983123 188.02018321 -49.83984375 193.25585938 C-49.91490925 203.50384973 -49.96534358 213.75179882 -50 224 C-53.13201551 223.70434137 -56.2633062 223.40156316 -59.39453125 223.09765625 C-60.70363464 222.97420837 -60.70363464 222.97420837 -62.03918457 222.8482666 C-85.44045922 220.55954078 -85.44045922 220.55954078 -88 218 C-88.0662038 215.77097889 -88.06166949 213.53984844 -88.03076172 211.31005859 C-88.01463239 209.85403894 -87.99893742 208.39801442 -87.98361206 206.94198608 C-87.97407375 206.16309399 -87.96453545 205.38420189 -87.9547081 204.581707 C-87.90269219 199.52312603 -87.90888849 194.46419143 -87.90334892 189.40538597 C-87.89525706 184.99669312 -87.86878798 180.58980242 -87.79785156 176.18164062 C-87.45087608 153.37650213 -89.49032183 134.73153154 -98.45410156 113.70129395 C-100.82526427 108.10186875 -102.84803981 102.3729165 -104.91778755 96.6571331 C-106.07330785 93.48205794 -107.25555801 90.31701709 -108.43725586 87.15161133 C-108.9125573 85.87669755 -109.38780725 84.60176458 -109.86300659 83.32681274 C-110.1006712 82.68933231 -110.3383358 82.05185188 -110.58320236 81.39505386 C-111.8332041 78.03984524 -113.0797324 74.68334693 -114.32641602 71.3269043 C-118.0181496 61.38912193 -121.71298026 51.45249598 -125.41503906 41.51855469 C-127.1254108 36.92872025 -128.83167376 32.33738317 -130.53427124 27.74465942 C-131.1315707 26.13628781 -131.73068277 24.52858806 -132.33169556 22.92160034 C-133.14087164 20.75792323 -133.9442261 18.59217528 -134.74609375 16.42578125 C-135.18622803 15.24411377 -135.6263623 14.06244629 -136.07983398 12.8449707 C-137 10 -137 10 -137 7 C-132.14378553 6.71256409 -127.28742299 6.42782424 -122.4309082 6.14550781 C-120.78112592 6.04923147 -119.13138536 5.95223737 -117.48168945 5.85449219 C-115.1011822 5.71357421 -112.7205335 5.57529625 -110.33984375 5.4375 C-109.24566383 5.37187866 -109.24566383 5.37187866 -108.12937927 5.30493164 C-103.74444179 5.05417458 -99.39216656 4.95968178 -95 5 C-92.50585193 11.41454611 -90.42258963 17.90594548 -88.41796875 24.48828125 C-88.08130692 25.58609421 -87.74464508 26.68390717 -87.39778137 27.81498718 C-86.32534172 31.31344478 -85.25624773 34.81291297 -84.1875 38.3125 C-83.1320803 41.76217454 -82.07592902 45.21162324 -81.01907349 48.66085815 C-80.33025433 50.90910901 -79.64215662 53.15758103 -78.95480347 55.40628052 C-77.3807497 60.54598469 -75.79156908 65.67947926 -74.15087891 70.79833984 C-73.8685994 71.67999313 -73.58631989 72.56164642 -73.29548645 73.47001648 C-72.77319641 75.09436704 -72.24714758 76.71751586 -71.71659851 78.33918762 C-70.75010573 81.34203533 -70 83.82367092 -70 87 C-69.34 87 -68.68 87 -68 87 C-67.91290771 86.46800995 -67.82581543 85.9360199 -67.73608398 85.38790894 C-66.20735157 76.93066176 -63.61874232 68.82026493 -61.0625 60.6328125 C-60.57656625 59.06495459 -60.09097652 57.49699001 -59.60571289 55.92892456 C-58.59349264 52.66191127 -57.57784754 49.39598972 -56.55957031 46.13085938 C-55.25583277 41.94976346 -53.95970518 37.76635543 -52.66596985 33.58215523 C-51.6666015 30.35229025 -50.66379243 27.1235019 -49.65988159 23.89504623 C-49.18051903 22.35238466 -48.7020961 20.80943079 -48.22463989 19.26617813 C-47.55811895 17.11403493 -46.88710852 14.96334311 -46.21484375 12.81298828 C-45.83448975 11.5907254 -45.45413574 10.36846252 -45.06225586 9.10916138 C-44.19718525 6.5771498 -43.37495806 4.29017208 -42 2 C-30.10880601 -2.81435509 -12.58083775 -0.10078315 0 0 Z " fill="#DD1B15" transform="translate(952,400)"/>
<path d="M0 0 C10.27576228 0 20.26085116 0.05117064 30.4609375 0.8046875 C31.65699615 0.88872833 32.85305481 0.97276917 34.08535767 1.05935669 C36.58770662 1.23643884 39.08985506 1.41637677 41.59179688 1.59912109 C45.36020957 1.87392145 49.12921829 2.13886149 52.8984375 2.40234375 C66.30060872 3.35298822 79.64804387 4.49841223 93 6 C93 17.22 93 28.44 93 40 C83.22387452 40 73.51086281 39.925821 63.75 39.5625 C62.574375 39.52318359 61.39875 39.48386719 60.1875 39.44335938 C59.02734375 39.40146484 57.8671875 39.35957031 56.671875 39.31640625 C55.6519043 39.27974854 54.63193359 39.24309082 53.58105469 39.20532227 C48.71212181 38.92615861 43.85690079 38.44153644 39 38 C39 54.5 39 71 39 88 C54.18 88.33 69.36 88.66 85 89 C85 100.88 85 112.76 85 125 C69.82 125 54.64 125 39 125 C39 156.02 39 187.04 39 219 C19.9380531 222.57411504 19.9380531 222.57411504 13.3125 223.6875 C12.56806641 223.81705078 11.82363281 223.94660156 11.05664062 224.08007812 C7.26848529 224.71762163 3.86838315 225 0 225 C0 150.75 0 76.5 0 0 Z " fill="#DD1C15" transform="translate(80,400)"/>
<path d="M0 0 C0 11.22 0 22.44 0 34 C-18.04106798 35.06910032 -35.92570903 35.0743798 -54 35 C-54 50.84 -54 66.68 -54 83 C-39.15 83 -24.3 83 -9 83 C-9 94.88 -9 106.76 -9 119 C-23.85 119 -38.7 119 -54 119 C-54 145.73 -54 172.46 -54 200 C-61.85712926 200 -69.60818329 199.97586818 -77.4375 199.5625 C-78.28248047 199.52318359 -79.12746094 199.48386719 -79.99804688 199.44335938 C-80.82240234 199.40146484 -81.64675781 199.35957031 -82.49609375 199.31640625 C-83.58168579 199.26141968 -83.58168579 199.26141968 -84.68920898 199.20532227 C-87.4774709 198.95757496 -90.23883986 198.46019336 -93 198 C-93 133.65 -93 69.3 -93 3 C-23 0 -23 0 0 0 Z " fill="#DD1B14" transform="translate(798,408)"/>
<path d="M0 0 C-2.70131673 8.53348818 -6.01109404 16.81142418 -9.3125 25.125 C-9.95989864 26.76045828 -10.60719357 28.39595762 -11.25439453 30.03149414 C-18.61605968 48.61558689 -26.0491581 67.17162765 -33.50109863 85.71968079 C-34.39019665 87.94363529 -35.27237905 90.17036716 -36.14758301 92.39982605 C-38.16829704 97.53468059 -40.24425595 102.59454939 -42.61010742 107.58081055 C-50.03929851 123.73057336 -50.45289352 139.27174519 -50.54510498 156.71081543 C-50.5745525 160.48030475 -50.65398633 164.24875847 -50.72851562 168.01757812 C-50.86639757 175.34490784 -50.95131303 182.67147485 -51 190 C-54.50259968 190.01466916 -58.00519131 190.02345588 -61.5078125 190.03125 C-62.49112549 190.03543945 -63.47443848 190.03962891 -64.48754883 190.04394531 C-71.71114137 190.05597962 -78.81185549 189.75950206 -86 189 C-86.83515818 180.58012906 -87.04484739 172.28043974 -86.96484375 163.828125 C-86.72233621 132.66456204 -86.72233621 132.66456204 -96.40771484 103.44140625 C-99.33963795 97.10464021 -101.62282727 90.51346908 -104.01446533 83.95806885 C-105.57365838 79.70031606 -107.16636819 75.45525117 -108.76171875 71.2109375 C-109.09333008 70.32832245 -109.42494141 69.4457074 -109.76660156 68.53634644 C-114.9774777 54.70839234 -120.3642042 40.94707281 -125.74194336 27.18334961 C-126.33304146 25.6671553 -126.33304146 25.6671553 -126.93608093 24.12033081 C-127.67089297 22.23580718 -128.4074941 20.35197965 -129.14631653 18.46902466 C-129.47862778 17.61629974 -129.81093903 16.76357483 -130.15332031 15.88500977 C-130.43894836 15.15516373 -130.72457642 14.42531769 -131.01885986 13.6733551 C-132.43531286 9.81388415 -133.69992865 5.90021405 -135 2 C-121.47 2 -107.94 2 -94 2 C-92.94941406 5.09117187 -91.89882813 8.18234375 -90.81640625 11.3671875 C-89.7690463 14.4471899 -88.72144282 17.52710938 -87.67382812 20.60702515 C-86.93510583 22.77931416 -86.19666018 24.95169726 -85.45849609 27.12417603 C-80.25096453 42.46578482 -80.25096453 42.46578482 -74.93359375 57.76953125 C-74.51198975 58.9704541 -74.09038574 60.17137695 -73.65600586 61.40869141 C-72.90577099 63.5366015 -72.1503748 65.66270155 -71.38891602 67.78662109 C-70.90249634 69.16648193 -70.90249634 69.16648193 -70.40625 70.57421875 C-70.13103516 71.34338623 -69.85582031 72.11255371 -69.57226562 72.9050293 C-69 75 -69 75 -69 79 C-68.34 79 -67.68 79 -67 79 C-66.74565186 77.7404248 -66.49130371 76.48084961 -66.22924805 75.18310547 C-64.99908551 69.66301597 -63.20612619 64.40032665 -61.33203125 59.0703125 C-60.79517952 57.52559769 -60.79517952 57.52559769 -60.2474823 55.94967651 C-59.49082882 53.77552607 -58.73177684 51.60220903 -57.97045898 49.4296875 C-56.82863703 46.1710533 -55.69390603 42.91002346 -54.56054688 39.6484375 C-51.10998798 29.73928026 -47.61699209 19.84621952 -44.01171875 9.9921875 C-43.72021439 9.19112579 -43.42871002 8.39006409 -43.12837219 7.56472778 C-41.12021865 2.12021865 -41.12021865 2.12021865 -40 1 C-37.46687209 0.83982251 -34.9579433 0.74050525 -32.421875 0.68359375 C-31.65828674 0.66281265 -30.89469849 0.64203156 -30.10797119 0.62062073 C-27.65540879 0.55505164 -25.20273339 0.4962869 -22.75 0.4375 C-21.11066574 0.39430854 -19.47134257 0.35069405 -17.83203125 0.30664062 C-5.05216051 -0.0290852 -5.05216051 -0.0290852 0 0 Z " fill="#DD1B15" transform="translate(687,412)"/>
<path d="M0 0 C27 0 27 0 38 1 C38 53.8 38 106.6 38 161 C53.345 160.505 53.345 160.505 69 160 C77.66659081 159.96373811 86.33347165 159.95103656 95 160 C95 170.56 95 181.12 95 192 C88.565 192.19916016 88.565 192.19916016 82 192.40234375 C78.53293453 192.5110627 75.06588562 192.62028264 71.59884644 192.72983551 C67.9646992 192.84453372 64.33053057 192.95839363 60.69628906 193.07006836 C56.50577267 193.19898213 52.31534801 193.33056738 48.125 193.46484375 C47.44355927 193.48663067 46.76211853 193.50841759 46.06002808 193.53086472 C38.7173178 193.76865126 31.39130372 194.05465358 24.0625 194.56640625 C16.05544049 195.0579901 8.02213542 195 0 195 C0 130.65 0 66.3 0 0 Z " fill="#DD1B14" transform="translate(263,411)"/>
<path d="M0 0 C13.5 0 13.5 0 19.078125 0.4375 C20.25761719 0.52773438 21.43710938 0.61796875 22.65234375 0.7109375 C23.83957031 0.80632812 25.02679688 0.90171875 26.25 1 C28.10044922 1.14308594 28.10044922 1.14308594 29.98828125 1.2890625 C32.99253233 1.52195018 35.99639123 1.75899341 39 2 C39.02353639 23.09104642 39.04107967 44.18209062 39.05181217 65.27314758 C39.05693164 75.06979821 39.06388958 84.8664406 39.07543945 94.66308594 C39.08552115 103.21862323 39.09188489 111.77415454 39.09408849 120.32969761 C39.09537314 124.84451095 39.09831167 129.35930722 39.10573006 133.87411499 C39.1406116 155.93765301 38.86075875 177.95185634 38 200 C36.07965575 200.32605669 34.15902772 200.65044227 32.23828125 200.97412109 C31.16876221 201.15494232 30.09924316 201.33576355 28.99731445 201.52206421 C25.66659527 202.05316294 22.36522747 202.40230112 19 202.625 C17.4221875 202.73714844 17.4221875 202.73714844 15.8125 202.8515625 C10.54542507 203.05663304 5.27106557 203 0 203 C0 136.01 0 69.02 0 0 Z " fill="#DD1C15" transform="translate(195,408)"/>
<path d="M0 0 C0 61.05 0 122.1 0 185 C-11.55 185 -23.1 185 -35 185 C-35.04511072 169.77964236 -35.08196808 154.55931477 -35.10362434 139.33890724 C-35.11394606 132.27213781 -35.12802341 125.2054128 -35.15087891 118.13867188 C-35.17290827 111.32412671 -35.1845553 104.50962781 -35.18975449 97.69504929 C-35.19346159 95.08981981 -35.20070017 92.48459298 -35.21146011 89.87938309 C-35.22589131 86.24196064 -35.22798146 82.60473143 -35.22705078 78.96728516 C-35.23424133 77.8804393 -35.24143188 76.79359344 -35.24884033 75.67381287 C-35.246091 74.68660751 -35.24334167 73.69940216 -35.24050903 72.68228149 C-35.24235262 71.82132685 -35.24419621 70.9603722 -35.24609566 70.07332802 C-35 68 -35 68 -33 66 C-33 104.61 -33 143.22 -33 183 C-23.1 183 -13.2 183 -3 183 C-2.67 123.6 -2.34 64.2 -2 3 C-17.51 3 -33.02 3 -49 3 C-49 2.34 -49 1.68 -49 1 C-44.59336361 0.85424918 -40.1866296 0.7120371 -35.77978516 0.57275391 C-34.2885448 0.52516453 -32.79733211 0.47669764 -31.30615234 0.42724609 C-29.13125665 0.35528803 -26.95627231 0.28676188 -24.78125 0.21875 C-23.48251953 0.17685547 -22.18378906 0.13496094 -20.84570312 0.09179688 C-13.89831455 -0.03981427 -6.94863508 0 0 0 Z " fill="#D80805" transform="translate(535,414)"/>
<path d="M0 0 C0.33 0 0.66 0 1 0 C1 60.39 1 120.78 1 183 C3.31 183 5.62 183 8 183 C8.33 183.66 8.66 184.32 9 185 C5.7 185 2.4 185 -1 185 C-0.505 93.425 -0.505 93.425 0 0 Z " fill="#DC120C" transform="translate(381,416)"/>
<path d="M0 0 C0.33 0 0.66 0 1 0 C1.33 1.65 1.66 3.3 2 5 C2.33 5 2.66 5 3 5 C3 17.21 3 29.42 3 42 C-1.29 42 -5.58 42 -10 42 C-10.66 41.01 -11.32 40.02 -12 39 C-8.04 39 -4.08 39 0 39 C0 26.13 0 13.26 0 0 Z " fill="#E0342E" transform="translate(741,566)"/>
<path d="M0 0 C4.29 0 8.58 0 13 0 C13 11.22 13 22.44 13 34 C11.35 34 9.7 34 8 34 C8.48895752 33.64188232 8.97791504 33.28376465 9.48168945 32.91479492 C11.71337719 30.1003349 11.33950005 27.91517049 11.29296875 24.36328125 C11.2784668 22.41518555 11.2784668 22.41518555 11.26367188 20.42773438 C11.23860585 19.05598361 11.21321101 17.68423882 11.1875 16.3125 C11.1724502 14.92905076 11.1587623 13.54558599 11.14648438 12.16210938 C11.11107223 8.77434793 11.06168054 5.38736861 11 2 C7.37 1.67 3.74 1.34 0 1 C0 0.67 0 0.34 0 0 Z " fill="#D90603" transform="translate(160,406)"/>
<path d="M0 0 C11.55 0 23.1 0 35 0 C35 0.33 35 0.66 35 1 C33.9805127 1.0501123 32.96102539 1.10022461 31.91064453 1.15185547 C28.13440179 1.33995975 24.3588988 1.54040946 20.58349609 1.74462891 C18.94825524 1.83134376 17.31283234 1.91469301 15.67724609 1.99462891 C13.32854299 2.1099988 10.98075695 2.23739088 8.6328125 2.3671875 C7.89942657 2.40061249 7.16604065 2.43403748 6.41043091 2.46847534 C2.25270544 2.60315608 2.25270544 2.60315608 -1 5 C-0.67 3.35 -0.34 1.7 0 0 Z " fill="#DA1210" transform="translate(647,413)"/>
<path d="M0 0 C13.53 0 27.06 0 41 0 C41 0.33 41 0.66 41 1 C39.88963379 1.01458252 38.77926758 1.02916504 37.63525391 1.04418945 C33.52375746 1.10207125 29.41281457 1.17930364 25.30175781 1.26245117 C23.52092458 1.2957484 21.73998459 1.32376531 19.95898438 1.34643555 C17.40188001 1.37989432 14.84575824 1.43220301 12.2890625 1.48828125 C11.49005524 1.49467117 10.69104797 1.5010611 9.86782837 1.50764465 C7.3870923 1.53954217 7.3870923 1.53954217 4 2 C3.01 3.485 3.01 3.485 2 5 C1.34 3.35 0.68 1.7 0 0 Z " fill="#DF3532" transform="translate(552,414)"/>
<path d="M0 0 C0 0.66 0 1.32 0 2 C-4.62 2 -9.24 2 -14 2 C-14 1.34 -14 0.68 -14 0 C-9.75481738 -1.41506087 -4.03909918 -2.01954959 0 0 Z " fill="#DD221F" transform="translate(924,402)"/>
<path d="M0 0 C0 0.99 0 1.98 0 3 C-2.97 3 -5.94 3 -9 3 C-9 2.34 -9 1.68 -9 1 C-6.04335481 -0.4783226 -3.25770263 -0.06032783 0 0 Z " fill="#DF251F" transform="translate(221,607)"/>
</svg>
